<svg width="54" height="20" viewBox="0 0 54 20" fill="none" xmlns="http://www.w3.org/2000/svg">
<path d="M3.23778 9L0.663921 0.272727H3.30597L4.49915 5.64205H4.56733L5.9821 0.272727H8.06165L9.47642 5.65909H9.5446L10.7378 0.272727H13.3798L10.806 9H8.53892L7.05597 4.125H6.98778L5.50483 9H3.23778ZM13.5469 9V0.272727H19.8366V2.18182H15.9162V3.68182H19.5128V5.59091H15.9162V7.09091H19.8196V9H13.5469ZM22.2023 9V0.272727H24.5717V3.68182H27.708V0.272727H30.0773V9H27.708V5.59091H24.5717V9H22.2023ZM32.8694 9H30.3126L33.1933 0.272727H36.4319L39.3126 9H36.7558L34.8467 2.67614H34.7785L32.8694 9ZM32.3921 5.55682H37.1989V7.32955H32.3921V5.55682ZM40.6739 0.272727L42.4636 6.42614H42.5318L44.3216 0.272727H46.9977L44.117 9H40.8784L37.9977 0.272727H40.6739ZM47.2383 9V0.272727H53.5281V2.18182H49.6076V3.68182H53.2042V5.59091H49.6076V7.09091H53.511V9H47.2383ZM13.3509 13.5455H10.9474C10.9304 13.3466 10.8849 13.1662 10.8111 13.0043C10.7401 12.8423 10.6406 12.7031 10.5128 12.5866C10.3878 12.4673 10.2358 12.3764 10.0568 12.3139C9.87784 12.2486 9.67472 12.2159 9.44744 12.2159C9.04972 12.2159 8.71307 12.3125 8.4375 12.5057C8.16477 12.6989 7.95739 12.9759 7.81534 13.3366C7.67614 13.6974 7.60653 14.1307 7.60653 14.6364C7.60653 15.1705 7.67756 15.6179 7.8196 15.9787C7.96449 16.3366 8.1733 16.6065 8.44602 16.7884C8.71875 16.9673 9.04688 17.0568 9.4304 17.0568C9.64915 17.0568 9.84517 17.0298 10.0185 16.9759C10.1918 16.919 10.3423 16.8381 10.4702 16.733C10.598 16.6278 10.7017 16.5014 10.7812 16.3537C10.8636 16.2031 10.919 16.0341 10.9474 15.8466L13.3509 15.8636C13.3224 16.233 13.2188 16.6094 13.0398 16.9929C12.8608 17.3736 12.6065 17.7259 12.277 18.0497C11.9503 18.3707 11.5455 18.6293 11.0625 18.8253C10.5795 19.0213 10.0185 19.1193 9.37926 19.1193C8.57812 19.1193 7.85938 18.9474 7.22301 18.6037C6.58949 18.2599 6.08807 17.7543 5.71875 17.0866C5.35227 16.419 5.16903 15.6023 5.16903 14.6364C5.16903 13.6648 5.35653 12.8466 5.73153 12.1818C6.10653 11.5142 6.61222 11.0099 7.24858 10.669C7.88494 10.3253 8.59517 10.1534 9.37926 10.1534C9.9304 10.1534 10.4375 10.2287 10.9006 10.3793C11.3636 10.5298 11.7699 10.75 12.1193 11.0398C12.4688 11.3267 12.75 11.6804 12.9631 12.1009C13.1761 12.5213 13.3054 13.0028 13.3509 13.5455ZM22.2803 14.6364C22.2803 15.608 22.0914 16.4276 21.7136 17.0952C21.3357 17.7599 20.8258 18.2642 20.1837 18.608C19.5417 18.9489 18.8258 19.1193 18.036 19.1193C17.2406 19.1193 16.5218 18.9474 15.8798 18.6037C15.2406 18.2571 14.732 17.7514 14.3542 17.0866C13.9792 16.419 13.7917 15.6023 13.7917 14.6364C13.7917 13.6648 13.9792 12.8466 14.3542 12.1818C14.732 11.5142 15.2406 11.0099 15.8798 10.669C16.5218 10.3253 17.2406 10.1534 18.036 10.1534C18.8258 10.1534 19.5417 10.3253 20.1837 10.669C20.8258 11.0099 21.3357 11.5142 21.7136 12.1818C22.0914 12.8466 22.2803 13.6648 22.2803 14.6364ZM19.8428 14.6364C19.8428 14.1136 19.7732 13.6733 19.634 13.3153C19.4977 12.9545 19.2945 12.6818 19.0246 12.4972C18.7576 12.3097 18.4281 12.2159 18.036 12.2159C17.644 12.2159 17.313 12.3097 17.0431 12.4972C16.7761 12.6818 16.5729 12.9545 16.4337 13.3153C16.2974 13.6733 16.2292 14.1136 16.2292 14.6364C16.2292 15.1591 16.2974 15.6009 16.4337 15.9616C16.5729 16.3196 16.7761 16.5923 17.0431 16.7798C17.313 16.9645 17.644 17.0568 18.036 17.0568C18.4281 17.0568 18.7576 16.9645 19.0246 16.7798C19.2945 16.5923 19.4977 16.3196 19.634 15.9616C19.7732 15.6009 19.8428 15.1591 19.8428 14.6364ZM22.7766 19V10.2727H28.9129V12.1818H25.1459V13.6818H28.5379V15.5909H25.1459V19H22.7766ZM29.1844 19V10.2727H35.3207V12.1818H31.5537V13.6818H34.9457V15.5909H31.5537V19H29.1844ZM35.5922 19V10.2727H41.882V12.1818H37.9615V13.6818H41.5581V15.5909H37.9615V17.0909H41.8649V19H35.5922ZM42.457 19V10.2727H48.7468V12.1818H44.8263V13.6818H48.4229V15.5909H44.8263V17.0909H48.7298V19H42.457Z" fill="black"/>
</svg>
